<svg width="31" height="23" viewBox="0 0 31 23" fill="none" xmlns="http://www.w3.org/2000/svg">
<path d="M13.517 18.892V19.392H14.017H16.7126H17.2126V18.892V17.9745C18.3689 17.785 19.3931 17.4365 20.2765 16.9202C21.3527 16.2914 21.9106 15.3267 21.9106 14.0852C21.9106 13.1768 21.5351 12.3631 20.8438 11.6562C20.1227 10.9187 18.7681 10.3438 16.9123 9.87383L16.9123 9.87374L16.9034 9.87165C15.3625 9.51146 14.3414 9.20568 13.8013 8.95866C13.3081 8.73309 13.2077 8.50316 13.2077 8.30618C13.2077 8.05116 13.3174 7.83256 13.6672 7.63364C14.033 7.42568 14.6187 7.29393 15.4803 7.29393C16.2546 7.29393 16.7937 7.42701 17.1472 7.64051C17.5418 7.87878 17.8026 8.15901 17.959 8.47434L18.1438 8.84702L18.5439 8.73304L21.0084 8.03092L21.5639 7.87266L21.3277 7.34557C20.994 6.60103 20.3927 5.98302 19.5747 5.47746C18.8756 5.04535 18.1121 4.77515 17.2896 4.66542V3.76942V3.26942H16.7896H14.094H13.594V3.76942V4.69965C12.4459 4.92548 11.495 5.3247 10.7718 5.92244C9.97096 6.58435 9.51213 7.38098 9.51213 8.30618C9.51213 9.31779 9.94599 10.1484 10.7738 10.7605C11.5584 11.3407 12.7437 11.8101 14.2795 12.1935C15.8954 12.6072 16.9689 12.9649 17.5425 13.2604C18.0734 13.5339 18.215 13.8164 18.215 14.0852C18.215 14.2933 18.1637 14.449 18.0774 14.5739C17.9887 14.7023 17.8409 14.8297 17.6001 14.9411C17.0781 15.1825 16.4282 15.3134 15.6343 15.3134C14.862 15.3134 14.1977 15.146 13.6271 14.8243C13.076 14.5136 12.6671 14.0489 12.399 13.4065L12.2292 12.9998L11.8044 13.1171L9.26286 13.8192L8.71677 13.9701L8.93433 14.4932C9.3297 15.4438 9.9481 16.2172 10.784 16.8034C11.5249 17.323 12.4415 17.6849 13.517 17.9042V18.892ZM15.4033 21.6325C13.3172 21.6325 11.364 21.355 9.54081 20.8033C7.70976 20.2492 6.12919 19.501 4.79254 18.5636C3.45659 17.6267 2.40845 16.5321 1.63885 15.2814C0.876998 14.0432 0.5 12.7293 0.5 11.3307C0.5 9.93209 0.876998 8.61814 1.63885 7.38001C2.40845 6.12928 3.45659 5.03463 4.79254 4.09777C6.12919 3.16042 7.70976 2.41216 9.54081 1.85808C11.364 1.30639 13.3172 1.02887 15.4033 1.02887C17.4893 1.02887 19.4426 1.30639 21.2657 1.85808C23.0968 2.41216 24.6774 3.16042 26.014 4.09777C27.35 5.03463 28.3981 6.12928 29.1677 7.38001C29.9295 8.61814 30.3065 9.93209 30.3065 11.3307C30.3065 12.7293 29.9295 14.0432 29.1677 15.2814C28.3981 16.5321 27.35 17.6267 26.014 18.5636C24.6774 19.501 23.0968 20.2492 21.2657 20.8033C19.4426 21.355 17.4893 21.6325 15.4033 21.6325Z" fill="white" stroke="black"/>
</svg>
